Jump_normalized_Motion_pl06
version=1
nRows=12
nColumns=43
inDegrees=yes
endheader
time		pelvis_tilt		pelvis_list		pelvis_rotation		pelvis_tx		pelvis_ty		pelvis_tz		hip_flexion_r		hip_adduction_r		hip_rotation_r		knee_angle_r		ankle_angle_r		subtalar_angle_r		mtp_angle_r		hip_flexion_l		hip_adduction_l		hip_rotation_l		knee_angle_l		ankle_angle_l		subtalar_angle_l		mtp_angle_l		lumbar_extension		lumbar_bending		lumbar_rotation		neck_flexion		neck_lateral_bending		neck_rotation		arm_flex_r		arm_add_r		arm_rot_r		elbow_flex_r		pro_sup_r		wrist_flex_r		wrist_dev_r		hand_finger_flex_r		arm_flex_l		arm_add_l		arm_rot_l		elbow_flex_l		pro_sup_l		wrist_flex_l		wrist_dev_l		hand_finger_flex_l		
0.480000		4.151491		-32.402903		89.937055		0.010808		1.719437		1.664023		75.655456		-11.580976		4.688882		-134.272451		33.520702		9.913376		-12.875289		74.354308		-10.483646		6.064784		-133.860164		37.812450		-4.696141		-20.903386		-21.908675		1.252244		1.250418		30.388275		1.517657		6.559218		118.466980		-18.143398		43.620001		64.424931		54.710983		-29.124341		-16.509896		54.946297		126.212435		-22.700139		57.621765		69.898441		67.045318		-45.540782		9.299384		75.670618		
0.482500		4.194106		-32.151060		90.057933		0.010552		1.721365		1.658393		74.841469		-11.635156		4.613461		-133.959781		32.609451		9.875406		-12.730263		73.593032		-10.394317		6.152643		-133.516366		36.974373		-4.567736		-20.882919		-21.904402		1.354721		1.155064		29.893561		1.450628		6.586888		118.621427		-18.090799		43.904544		64.172776		54.709329		-29.054118		-16.234640		54.910593		126.419471		-22.781199		58.047105		69.770340		67.323272		-45.441126		9.325549		75.735135		
0.485000		4.219818		-31.919719		90.154350		0.010301		1.723238		1.652796		74.093717		-11.675988		4.550452		-133.648552		31.638153		9.794749		-12.603294		72.874473		-10.283715		6.249293		-133.181815		36.079332		-4.430350		-20.885294		-21.879494		1.437815		1.071839		29.376292		1.395691		6.607435		118.747027		-18.049927		44.181596		63.944609		54.732774		-28.986220		-15.996563		54.870556		126.613127		-22.863894		58.484363		69.643655		67.569655		-45.356886		9.352068		75.794247		
0.487500		4.239718		-31.665749		90.255087		0.010053		1.725084		1.647173		73.358107		-11.727257		4.476936		-133.352683		30.570473		9.638071		-12.475316		72.165001		-10.184858		6.332402		-132.849971		35.109698		-4.317085		-20.903190		-21.880835		1.514277		0.973788		28.877549		1.351723		6.627643		118.864048		-18.008758		44.452102		63.708475		54.782169		-28.919224		-15.770212		54.820753		126.819326		-22.945635		58.955273		69.502352		67.817905		-45.279259		9.369586		75.852209		
0.490000		4.256677		-31.391819		90.354935		0.009796		1.726946		1.641515		72.640880		-11.792387		4.379480		-133.052549		29.414984		9.399835		-12.334125		71.461832		-10.105427		6.394486		-132.519783		34.062129		-4.232825		-20.935085		-21.914447		1.583019		0.860610		28.383899		1.319424		6.649050		118.970606		-17.977928		44.713246		63.489097		54.870123		-28.848888		-15.558710		54.761812		127.044187		-23.033905		59.453242		69.369238		68.068010		-45.203621		9.376334		75.915142		
0.492500		4.263494		-31.125285		90.439602		0.009566		1.728758		1.635861		71.964679		-11.861887		4.270520		-132.752848		28.195734		9.109663		-12.191112		70.799422		-10.032350		6.448826		-132.198908		32.957542		-4.169732		-20.985562		-21.941491		1.634709		0.751023		27.901909		1.302374		6.667982		119.052858		-17.957781		44.964875		63.284026		55.000280		-28.781419		-15.366120		54.697608		127.266867		-23.124147		59.965451		69.233525		68.305764		-45.130670		9.378012		75.977821		
0.495000		4.260164		-30.861264		90.518105		0.009355		1.730480		1.630202		71.334073		-11.935020		4.167156		-132.474169		26.884024		8.776300		-12.055808		70.178708		-9.964524		6.510016		-131.883645		31.767788		-4.125190		-21.060041		-21.961923		1.674981		0.643682		27.413630		1.303867		6.682625		119.128821		-17.946106		45.206057		63.087399		55.173841		-28.721387		-15.186583		54.630422		127.478744		-23.209826		60.507112		69.085991		68.536855		-45.053545		9.377164		76.037757		
0.497500		4.235080		-30.709421		90.557139		0.009203		1.732008		1.624555		70.837347		-12.013796		4.086808		-132.178320		25.702858		8.643545		-12.039532		69.697368		-9.937851		6.533994		-131.576442		30.606826		-3.947157		-21.169139		-21.848139		1.677712		0.567800		26.757931		1.285513		6.679456		119.135776		-18.045770		45.486264		63.066884		55.331797		-28.658773		-15.069128		54.616063		127.600431		-23.342732		60.977534		69.083653		68.697776		-44.961430		9.393094		76.091326		
0.500000		4.268034		-30.214736		90.699435		0.009006		1.734174		1.618772		70.016982		-12.120927		3.754712		-131.863374		23.910851		7.462547		-11.565342		68.897211		-9.859404		6.553970		-131.235586		29.120186		-4.479064		-21.243818		-22.199004		1.736310		0.359691		26.565282		1.419538		6.753798		119.244233		-17.976170		45.604272		62.816160		55.830739		-28.578917		-14.827992		54.443338		128.060189		-23.462117		61.773297		68.878983		69.097202		-44.851986		9.284933		76.192966		
0.502500		4.261715		-30.024201		90.753648		0.008840		1.735544		1.613326		69.623342		-12.199375		3.676239		-131.631008		22.383267		7.313588		-11.402715		68.492703		-9.845827		6.610893		-130.983738		27.702579		-4.299912		-21.370147		-22.132723		1.753977		0.280571		26.030803		1.438573		6.739781		119.283246		-17.962536		45.826798		62.556827		56.108252		-28.541620		-14.642775		54.362922		128.222045		-23.462465		62.278059		68.621482		69.244232		-44.785845		9.323242		76.227347		
0.505000		4.259976		-29.808472		90.836239		0.008669		1.736995		1.607854		69.226312		-12.304770		3.526470		-131.385212		20.687487		6.870413		-11.226840		68.096363		-9.813833		6.648076		-130.711010		26.154602		-4.358893		-21.512701		-22.117574		1.770731		0.167141		25.541157		1.512444		6.735926		119.319870		-17.999142		46.055305		62.373178		56.485788		-28.515369		-14.478701		54.281333		128.447133		-23.505829		62.890902		68.414942		69.465745		-44.676366		9.322601		76.261770		
0.507500		4.269459		-29.591714		90.915198		0.008499		1.738401		1.602421		68.854703		-12.404796		3.324282		-131.119733		18.899313		6.310098		-11.015802		67.737460		-9.776010		6.668186		-130.450930		24.519104		-4.525343		-21.659028		-22.118237		1.779510		0.040705		25.078950		1.614240		6.740632		119.345160		-18.045578		46.262152		62.207266		56.941324		-28.505331		-14.315665		54.193161		128.702820		-23.543460		63.520305		68.211517		69.704902		-44.549234		9.311376		76.289533		
